<?xml version="1.0" encoding="UTF-8" standalone="no"?>
<!DOCTYPE svg PUBLIC "-//W3C//DTD SVG 1.1//EN"
 "http://www.w3.org/Graphics/SVG/1.1/DTD/svg11.dtd">
<!-- Generated by graphviz version 2.26.3 (20100126.1600)
 -->
<!-- Title: controllers_diagram Pages: 1 -->
<svg width="1064pt" height="936pt"
 viewBox="0.00 0.00 1064.00 935.69" xmlns="http://www.w3.org/2000/svg" xmlns:xlink="http://www.w3.org/1999/xlink">
<g id="graph1" class="graph" transform="scale(1 1) rotate(0) translate(4 931.691)">
<title>controllers_diagram</title>
<polygon fill="white" stroke="white" points="-4,5 -4,-931.691 1061,-931.691 1061,5 -4,5"/>
<!-- _diagram_info -->
<g id="node1" class="node"><title>_diagram_info</title>
<text text-anchor="start" x="813" y="-145.3" font-family="Times Roman,serif" font-size="13.00">Controllers diagram</text>
<text text-anchor="start" x="813" y="-128.3" font-family="Times Roman,serif" font-size="13.00">Date: Sep 04 2013 &#45; 15:53</text>
<text text-anchor="start" x="813" y="-111.3" font-family="Times Roman,serif" font-size="13.00">Migration version: 20130625114938</text>
<text text-anchor="start" x="813" y="-94.3" font-family="Times Roman,serif" font-size="13.00">Generated by RailRoady 1.1.1</text>
<text text-anchor="start" x="813" y="-77.3" font-family="Times Roman,serif" font-size="13.00">http://railroady.prestonlee.com</text>
</g>
<!-- Admin::ApplicationController -->
<g id="node2" class="node"><title>Admin::ApplicationController</title>
<polyline fill="none" stroke="black" points="268.258,-472.175 482.258,-472.175 "/>
<path fill="none" stroke="black" d="M482.258,-472.175C488.258,-472.175 494.258,-478.175 494.258,-484.175"/>
<polyline fill="none" stroke="black" points="494.258,-484.175 494.258,-580.175 "/>
<path fill="none" stroke="black" d="M494.258,-580.175C494.258,-586.175 488.258,-592.175 482.258,-592.175"/>
<polyline fill="none" stroke="black" points="482.258,-592.175 268.258,-592.175 "/>
<path fill="none" stroke="black" d="M268.258,-592.175C262.258,-592.175 256.258,-586.175 256.258,-580.175"/>
<polyline fill="none" stroke="black" points="256.258,-580.175 256.258,-484.175 "/>
<path fill="none" stroke="black" d="M256.258,-484.175C256.258,-478.175 262.258,-472.175 268.258,-472.175"/>
<text text-anchor="middle" x="375.258" y="-575.575" font-family="Times Roman,serif" font-size="14.00">Admin::ApplicationController</text>
<polyline fill="none" stroke="black" points="256.258,-566.175 494.258,-566.175 "/>
<text text-anchor="start" x="264.258" y="-549.575" font-family="Times Roman,serif" font-size="14.00">_one_time_conditions_valid_50?</text>
<text text-anchor="start" x="264.258" y="-531.575" font-family="Times Roman,serif" font-size="14.00">_one_time_conditions_valid_52?</text>
<polyline fill="none" stroke="black" points="256.258,-522.175 494.258,-522.175 "/>
<polyline fill="none" stroke="black" points="256.258,-498.175 494.258,-498.175 "/>
<text text-anchor="start" x="264.258" y="-481.575" font-family="Times Roman,serif" font-size="14.00">_layout</text>
</g>
<!-- Admin::ArticlesController -->
<g id="node3" class="node"><title>Admin::ArticlesController</title>
<polyline fill="none" stroke="black" points="538.258,-254.438 761.258,-254.438 "/>
<path fill="none" stroke="black" d="M761.258,-254.438C767.258,-254.438 773.258,-260.438 773.258,-266.438"/>
<polyline fill="none" stroke="black" points="773.258,-266.438 773.258,-578.438 "/>
<path fill="none" stroke="black" d="M773.258,-578.438C773.258,-584.438 767.258,-590.438 761.258,-590.438"/>
<polyline fill="none" stroke="black" points="761.258,-590.438 538.258,-590.438 "/>
<path fill="none" stroke="black" d="M538.258,-590.438C532.258,-590.438 526.258,-584.438 526.258,-578.438"/>
<polyline fill="none" stroke="black" points="526.258,-578.438 526.258,-266.438 "/>
<path fill="none" stroke="black" d="M526.258,-266.438C526.258,-260.438 532.258,-254.438 538.258,-254.438"/>
<text text-anchor="middle" x="649.758" y="-573.838" font-family="Times Roman,serif" font-size="14.00">Admin::ArticlesController</text>
<polyline fill="none" stroke="black" points="526.258,-564.438 773.258,-564.438 "/>
<text text-anchor="start" x="534.258" y="-547.838" font-family="Times Roman,serif" font-size="14.00">_one_time_conditions_valid_234?</text>
<text text-anchor="start" x="534.258" y="-529.838" font-family="Times Roman,serif" font-size="14.00">autocomplete_tag_name</text>
<text text-anchor="start" x="534.258" y="-511.838" font-family="Times Roman,serif" font-size="14.00">create</text>
<text text-anchor="start" x="534.258" y="-493.838" font-family="Times Roman,serif" font-size="14.00">destroy</text>
<text text-anchor="start" x="534.258" y="-475.838" font-family="Times Roman,serif" font-size="14.00">edit</text>
<text text-anchor="start" x="534.258" y="-457.838" font-family="Times Roman,serif" font-size="14.00">index</text>
<text text-anchor="start" x="534.258" y="-439.838" font-family="Times Roman,serif" font-size="14.00">new</text>
<text text-anchor="start" x="534.258" y="-421.838" font-family="Times Roman,serif" font-size="14.00">preview</text>
<text text-anchor="start" x="534.258" y="-403.838" font-family="Times Roman,serif" font-size="14.00">process_base64_upload</text>
<text text-anchor="start" x="534.258" y="-385.838" font-family="Times Roman,serif" font-size="14.00">show</text>
<text text-anchor="start" x="534.258" y="-367.838" font-family="Times Roman,serif" font-size="14.00">splitBase64</text>
<text text-anchor="start" x="534.258" y="-349.838" font-family="Times Roman,serif" font-size="14.00">toggle_feature</text>
<text text-anchor="start" x="534.258" y="-331.838" font-family="Times Roman,serif" font-size="14.00">toggle_publish</text>
<text text-anchor="start" x="534.258" y="-313.838" font-family="Times Roman,serif" font-size="14.00">update</text>
<polyline fill="none" stroke="black" points="526.258,-304.438 773.258,-304.438 "/>
<polyline fill="none" stroke="black" points="526.258,-280.438 773.258,-280.438 "/>
<text text-anchor="start" x="534.258" y="-263.838" font-family="Times Roman,serif" font-size="14.00">_layout</text>
</g>
<!-- Admin::ApplicationController&#45;&gt;Admin::ArticlesController -->
<g id="edge4" class="edge"><title>Admin::ApplicationController&#45;&gt;Admin::ArticlesController</title>
<path fill="none" stroke="black" d="M494.46,-484.522C504.878,-480.357 515.436,-476.136 525.89,-471.957"/>
</g>
<!-- Admin::PicturesController -->
<g id="node4" class="node"><title>Admin::PicturesController</title>
<polyline fill="none" stroke="black" points="22.1433,-243.893 192.143,-243.893 "/>
<path fill="none" stroke="black" d="M192.143,-243.893C198.143,-243.893 204.143,-249.893 204.143,-255.893"/>
<polyline fill="none" stroke="black" points="204.143,-255.893 204.143,-369.893 "/>
<path fill="none" stroke="black" d="M204.143,-369.893C204.143,-375.893 198.143,-381.893 192.143,-381.893"/>
<polyline fill="none" stroke="black" points="192.143,-381.893 22.1433,-381.893 "/>
<path fill="none" stroke="black" d="M22.1433,-381.893C16.1433,-381.893 10.1433,-375.893 10.1433,-369.893"/>
<polyline fill="none" stroke="black" points="10.1433,-369.893 10.1433,-255.893 "/>
<path fill="none" stroke="black" d="M10.1433,-255.893C10.1433,-249.893 16.1433,-243.893 22.1433,-243.893"/>
<text text-anchor="middle" x="107.143" y="-365.293" font-family="Times Roman,serif" font-size="14.00">Admin::PicturesController</text>
<polyline fill="none" stroke="black" points="10.1433,-355.893 204.143,-355.893 "/>
<text text-anchor="start" x="18.1433" y="-339.293" font-family="Times Roman,serif" font-size="14.00">create</text>
<text text-anchor="start" x="18.1433" y="-321.293" font-family="Times Roman,serif" font-size="14.00">destroy</text>
<text text-anchor="start" x="18.1433" y="-303.293" font-family="Times Roman,serif" font-size="14.00">update</text>
<polyline fill="none" stroke="black" points="10.1433,-293.893 204.143,-293.893 "/>
<polyline fill="none" stroke="black" points="10.1433,-269.893 204.143,-269.893 "/>
<text text-anchor="start" x="18.1433" y="-253.293" font-family="Times Roman,serif" font-size="14.00">_layout</text>
</g>
<!-- Admin::ApplicationController&#45;&gt;Admin::PicturesController -->
<g id="edge6" class="edge"><title>Admin::ApplicationController&#45;&gt;Admin::PicturesController</title>
<path fill="none" stroke="black" d="M301.64,-471.965C267.69,-444.198 227.198,-411.082 191.973,-382.272"/>
</g>
<!-- Admin::UsersController -->
<g id="node5" class="node"><title>Admin::UsersController</title>
<polyline fill="none" stroke="black" points="13,-502.416 165,-502.416 "/>
<path fill="none" stroke="black" d="M165,-502.416C171,-502.416 177,-508.416 177,-514.416"/>
<polyline fill="none" stroke="black" points="177,-514.416 177,-610.416 "/>
<path fill="none" stroke="black" d="M177,-610.416C177,-616.416 171,-622.416 165,-622.416"/>
<polyline fill="none" stroke="black" points="165,-622.416 13,-622.416 "/>
<path fill="none" stroke="black" d="M13,-622.416C7,-622.416 1,-616.416 1,-610.416"/>
<polyline fill="none" stroke="black" points="1,-610.416 1,-514.416 "/>
<path fill="none" stroke="black" d="M1,-514.416C1,-508.416 7,-502.416 13,-502.416"/>
<text text-anchor="middle" x="89" y="-605.816" font-family="Times Roman,serif" font-size="14.00">Admin::UsersController</text>
<polyline fill="none" stroke="black" points="1,-596.416 177,-596.416 "/>
<text text-anchor="start" x="9" y="-579.816" font-family="Times Roman,serif" font-size="14.00">create</text>
<text text-anchor="start" x="9" y="-561.816" font-family="Times Roman,serif" font-size="14.00">new</text>
<polyline fill="none" stroke="black" points="1,-552.416 177,-552.416 "/>
<polyline fill="none" stroke="black" points="1,-528.416 177,-528.416 "/>
<text text-anchor="start" x="9" y="-511.816" font-family="Times Roman,serif" font-size="14.00">_layout</text>
</g>
<!-- Admin::ApplicationController&#45;&gt;Admin::UsersController -->
<g id="edge8" class="edge"><title>Admin::ApplicationController&#45;&gt;Admin::UsersController</title>
<path fill="none" stroke="black" d="M255.932,-544.781C229.545,-547.568 202.048,-550.473 177.165,-553.102"/>
</g>
<!-- Admin::AuthorsController -->
<g id="node6" class="node"><title>Admin::AuthorsController</title>
<polyline fill="none" stroke="black" points="514.874,-642.494 683.874,-642.494 "/>
<path fill="none" stroke="black" d="M683.874,-642.494C689.874,-642.494 695.874,-648.494 695.874,-654.494"/>
<polyline fill="none" stroke="black" points="695.874,-654.494 695.874,-840.494 "/>
<path fill="none" stroke="black" d="M695.874,-840.494C695.874,-846.494 689.874,-852.494 683.874,-852.494"/>
<polyline fill="none" stroke="black" points="683.874,-852.494 514.874,-852.494 "/>
<path fill="none" stroke="black" d="M514.874,-852.494C508.874,-852.494 502.874,-846.494 502.874,-840.494"/>
<polyline fill="none" stroke="black" points="502.874,-840.494 502.874,-654.494 "/>
<path fill="none" stroke="black" d="M502.874,-654.494C502.874,-648.494 508.874,-642.494 514.874,-642.494"/>
<text text-anchor="middle" x="599.374" y="-835.894" font-family="Times Roman,serif" font-size="14.00">Admin::AuthorsController</text>
<polyline fill="none" stroke="black" points="502.874,-826.494 695.874,-826.494 "/>
<text text-anchor="start" x="510.874" y="-809.894" font-family="Times Roman,serif" font-size="14.00">create</text>
<text text-anchor="start" x="510.874" y="-791.894" font-family="Times Roman,serif" font-size="14.00">destroy</text>
<text text-anchor="start" x="510.874" y="-773.894" font-family="Times Roman,serif" font-size="14.00">edit</text>
<text text-anchor="start" x="510.874" y="-755.894" font-family="Times Roman,serif" font-size="14.00">index</text>
<text text-anchor="start" x="510.874" y="-737.894" font-family="Times Roman,serif" font-size="14.00">new</text>
<text text-anchor="start" x="510.874" y="-719.894" font-family="Times Roman,serif" font-size="14.00">show</text>
<text text-anchor="start" x="510.874" y="-701.894" font-family="Times Roman,serif" font-size="14.00">update</text>
<polyline fill="none" stroke="black" points="502.874,-692.494 695.874,-692.494 "/>
<polyline fill="none" stroke="black" points="502.874,-668.494 695.874,-668.494 "/>
<text text-anchor="start" x="510.874" y="-651.894" font-family="Times Roman,serif" font-size="14.00">_layout</text>
</g>
<!-- Admin::ApplicationController&#45;&gt;Admin::AuthorsController -->
<g id="edge10" class="edge"><title>Admin::ApplicationController&#45;&gt;Admin::AuthorsController</title>
<path fill="none" stroke="black" d="M437.985,-592.44C458.057,-611.724 480.766,-633.542 502.678,-654.593"/>
</g>
<!-- Admin::ShortArticlesController -->
<g id="node7" class="node"><title>Admin::ShortArticlesController</title>
<polyline fill="none" stroke="black" points="91.2949,-644.191 294.295,-644.191 "/>
<path fill="none" stroke="black" d="M294.295,-644.191C300.295,-644.191 306.295,-650.191 306.295,-656.191"/>
<polyline fill="none" stroke="black" points="306.295,-656.191 306.295,-914.191 "/>
<path fill="none" stroke="black" d="M306.295,-914.191C306.295,-920.191 300.295,-926.191 294.295,-926.191"/>
<polyline fill="none" stroke="black" points="294.295,-926.191 91.2949,-926.191 "/>
<path fill="none" stroke="black" d="M91.2949,-926.191C85.2949,-926.191 79.2949,-920.191 79.2949,-914.191"/>
<polyline fill="none" stroke="black" points="79.2949,-914.191 79.2949,-656.191 "/>
<path fill="none" stroke="black" d="M79.2949,-656.191C79.2949,-650.191 85.2949,-644.191 91.2949,-644.191"/>
<text text-anchor="middle" x="192.795" y="-909.591" font-family="Times Roman,serif" font-size="14.00">Admin::ShortArticlesController</text>
<polyline fill="none" stroke="black" points="79.2949,-900.191 306.295,-900.191 "/>
<text text-anchor="start" x="87.2949" y="-883.591" font-family="Times Roman,serif" font-size="14.00">autocomplete_tag_name</text>
<text text-anchor="start" x="87.2949" y="-865.591" font-family="Times Roman,serif" font-size="14.00">create</text>
<text text-anchor="start" x="87.2949" y="-847.591" font-family="Times Roman,serif" font-size="14.00">destroy</text>
<text text-anchor="start" x="87.2949" y="-829.591" font-family="Times Roman,serif" font-size="14.00">edit</text>
<text text-anchor="start" x="87.2949" y="-811.591" font-family="Times Roman,serif" font-size="14.00">index</text>
<text text-anchor="start" x="87.2949" y="-793.591" font-family="Times Roman,serif" font-size="14.00">new</text>
<text text-anchor="start" x="87.2949" y="-775.591" font-family="Times Roman,serif" font-size="14.00">preview</text>
<text text-anchor="start" x="87.2949" y="-757.591" font-family="Times Roman,serif" font-size="14.00">show</text>
<text text-anchor="start" x="87.2949" y="-739.591" font-family="Times Roman,serif" font-size="14.00">toggle_feature</text>
<text text-anchor="start" x="87.2949" y="-721.591" font-family="Times Roman,serif" font-size="14.00">toggle_publish</text>
<text text-anchor="start" x="87.2949" y="-703.591" font-family="Times Roman,serif" font-size="14.00">update</text>
<polyline fill="none" stroke="black" points="79.2949,-694.191 306.295,-694.191 "/>
<polyline fill="none" stroke="black" points="79.2949,-670.191 306.295,-670.191 "/>
<text text-anchor="start" x="87.2949" y="-653.591" font-family="Times Roman,serif" font-size="14.00">_layout</text>
</g>
<!-- Admin::ApplicationController&#45;&gt;Admin::ShortArticlesController -->
<g id="edge12" class="edge"><title>Admin::ApplicationController&#45;&gt;Admin::ShortArticlesController</title>
<path fill="none" stroke="black" d="M331.785,-592.457C320.401,-608.243 307.636,-625.945 294.578,-644.052"/>
</g>
<!-- ApplicationController -->
<g id="node8" class="node"><title>ApplicationController</title>
<polyline fill="none" stroke="black" points="283.373,-187.743 497.373,-187.743 "/>
<path fill="none" stroke="black" d="M497.373,-187.743C503.373,-187.743 509.373,-193.743 509.373,-199.743"/>
<polyline fill="none" stroke="black" points="509.373,-199.743 509.373,-313.743 "/>
<path fill="none" stroke="black" d="M509.373,-313.743C509.373,-319.743 503.373,-325.743 497.373,-325.743"/>
<polyline fill="none" stroke="black" points="497.373,-325.743 283.373,-325.743 "/>
<path fill="none" stroke="black" d="M283.373,-325.743C277.373,-325.743 271.373,-319.743 271.373,-313.743"/>
<polyline fill="none" stroke="black" points="271.373,-313.743 271.373,-199.743 "/>
<path fill="none" stroke="black" d="M271.373,-199.743C271.373,-193.743 277.373,-187.743 283.373,-187.743"/>
<text text-anchor="middle" x="390.373" y="-309.143" font-family="Times Roman,serif" font-size="14.00">ApplicationController</text>
<polyline fill="none" stroke="black" points="271.373,-299.743 509.373,-299.743 "/>
<text text-anchor="start" x="279.373" y="-283.143" font-family="Times Roman,serif" font-size="14.00">_one_time_conditions_valid_48?</text>
<polyline fill="none" stroke="black" points="271.373,-273.743 509.373,-273.743 "/>
<polyline fill="none" stroke="black" points="271.373,-249.743 509.373,-249.743 "/>
<text text-anchor="start" x="279.373" y="-233.143" font-family="Times Roman,serif" font-size="14.00">_layout</text>
<text text-anchor="start" x="279.373" y="-215.143" font-family="Times Roman,serif" font-size="14.00">authorize</text>
<text text-anchor="start" x="279.373" y="-197.143" font-family="Times Roman,serif" font-size="14.00">current_user</text>
</g>
<!-- ApplicationController&#45;&gt;Admin::ApplicationController -->
<g id="edge2" class="edge"><title>ApplicationController&#45;&gt;Admin::ApplicationController</title>
<path fill="none" stroke="black" d="M386.578,-325.891C384.112,-370.828 380.929,-428.843 378.566,-471.897"/>
</g>
<!-- SessionsController -->
<g id="node9" class="node"><title>SessionsController</title>
<polyline fill="none" stroke="black" points="547.793,-21.2771 667.793,-21.2771 "/>
<path fill="none" stroke="black" d="M667.793,-21.2771C673.793,-21.2771 679.793,-27.2771 679.793,-33.2771"/>
<polyline fill="none" stroke="black" points="679.793,-33.2771 679.793,-147.277 "/>
<path fill="none" stroke="black" d="M679.793,-147.277C679.793,-153.277 673.793,-159.277 667.793,-159.277"/>
<polyline fill="none" stroke="black" points="667.793,-159.277 547.793,-159.277 "/>
<path fill="none" stroke="black" d="M547.793,-159.277C541.793,-159.277 535.793,-153.277 535.793,-147.277"/>
<polyline fill="none" stroke="black" points="535.793,-147.277 535.793,-33.2771 "/>
<path fill="none" stroke="black" d="M535.793,-33.2771C535.793,-27.2771 541.793,-21.2771 547.793,-21.2771"/>
<text text-anchor="middle" x="607.793" y="-142.677" font-family="Times Roman,serif" font-size="14.00">SessionsController</text>
<polyline fill="none" stroke="black" points="535.793,-133.277 679.793,-133.277 "/>
<text text-anchor="start" x="543.793" y="-116.677" font-family="Times Roman,serif" font-size="14.00">create</text>
<text text-anchor="start" x="543.793" y="-98.6771" font-family="Times Roman,serif" font-size="14.00">destroy</text>
<text text-anchor="start" x="543.793" y="-80.6771" font-family="Times Roman,serif" font-size="14.00">new</text>
<polyline fill="none" stroke="black" points="535.793,-71.2771 679.793,-71.2771 "/>
<polyline fill="none" stroke="black" points="535.793,-47.2771 679.793,-47.2771 "/>
<text text-anchor="start" x="543.793" y="-30.6771" font-family="Times Roman,serif" font-size="14.00">_layout</text>
</g>
<!-- ApplicationController&#45;&gt;SessionsController -->
<g id="edge14" class="edge"><title>ApplicationController&#45;&gt;SessionsController</title>
<path fill="none" stroke="black" d="M480.69,-187.593C499.007,-173.568 518.043,-158.994 535.633,-145.526"/>
</g>
<!-- ArticlesController -->
<g id="node10" class="node"><title>ArticlesController</title>
<polyline fill="none" stroke="black" points="113.389,-1.5 226.389,-1.5 "/>
<path fill="none" stroke="black" d="M226.389,-1.5C232.389,-1.5 238.389,-7.5 238.389,-13.5"/>
<polyline fill="none" stroke="black" points="238.389,-13.5 238.389,-109.5 "/>
<path fill="none" stroke="black" d="M238.389,-109.5C238.389,-115.5 232.389,-121.5 226.389,-121.5"/>
<polyline fill="none" stroke="black" points="226.389,-121.5 113.389,-121.5 "/>
<path fill="none" stroke="black" d="M113.389,-121.5C107.389,-121.5 101.389,-115.5 101.389,-109.5"/>
<polyline fill="none" stroke="black" points="101.389,-109.5 101.389,-13.5 "/>
<path fill="none" stroke="black" d="M101.389,-13.5C101.389,-7.5 107.389,-1.5 113.389,-1.5"/>
<text text-anchor="middle" x="169.889" y="-104.9" font-family="Times Roman,serif" font-size="14.00">ArticlesController</text>
<polyline fill="none" stroke="black" points="101.389,-95.5 238.389,-95.5 "/>
<text text-anchor="start" x="109.389" y="-78.9" font-family="Times Roman,serif" font-size="14.00">index</text>
<text text-anchor="start" x="109.389" y="-60.9" font-family="Times Roman,serif" font-size="14.00">show</text>
<polyline fill="none" stroke="black" points="101.389,-51.5 238.389,-51.5 "/>
<polyline fill="none" stroke="black" points="101.389,-27.5 238.389,-27.5 "/>
<text text-anchor="start" x="109.389" y="-10.9" font-family="Times Roman,serif" font-size="14.00">_layout</text>
</g>
<!-- ApplicationController&#45;&gt;ArticlesController -->
<g id="edge16" class="edge"><title>ApplicationController&#45;&gt;ArticlesController</title>
<path fill="none" stroke="black" d="M312.328,-187.633C288.048,-166.132 261.483,-142.609 237.942,-121.762"/>
</g>
</g>
</svg>
