<?xml version="1.0" encoding="UTF-8" standalone="no"?>
<!DOCTYPE svg PUBLIC "-//W3C//DTD SVG 1.1//EN"
 "http://www.w3.org/Graphics/SVG/1.1/DTD/svg11.dtd">
<!-- Generated by graphviz version 2.26.3 (20100126.1600)
 -->
<!-- Title: models_diagram Pages: 1 -->
<svg width="1147pt" height="346pt"
 viewBox="0.00 0.00 1147.00 346.00" xmlns="http://www.w3.org/2000/svg" xmlns:xlink="http://www.w3.org/1999/xlink">
<g id="graph1" class="graph" transform="scale(1 1) rotate(0) translate(4 342)">
<title>models_diagram</title>
<polygon fill="white" stroke="white" points="-4,5 -4,-342 1144,-342 1144,5 -4,5"/>
<!-- _diagram_info -->
<g id="node1" class="node"><title>_diagram_info</title>
<text text-anchor="start" x="8" y="-321.8" font-family="Times Roman,serif" font-size="13.00">Models diagram</text>
<text text-anchor="start" x="8" y="-304.8" font-family="Times Roman,serif" font-size="13.00">Date: Sep 04 2013 &#45; 15:53</text>
<text text-anchor="start" x="8" y="-287.8" font-family="Times Roman,serif" font-size="13.00">Migration version: 20130625114938</text>
<text text-anchor="start" x="8" y="-270.8" font-family="Times Roman,serif" font-size="13.00">Generated by RailRoady 1.1.1</text>
<text text-anchor="start" x="8" y="-253.8" font-family="Times Roman,serif" font-size="13.00">http://railroady.prestonlee.com</text>
</g>
<!-- User -->
<g id="node2" class="node"><title>User</title>
<ellipse fill="none" stroke="black" cx="225" cy="-187" rx="33.9411" ry="18.3848"/>
<text text-anchor="middle" x="225" y="-183.4" font-family="Times Roman,serif" font-size="14.00">User</text>
</g>
<!-- Picture -->
<g id="node3" class="node"><title>Picture</title>
<ellipse fill="none" stroke="black" cx="1093" cy="-19" rx="45.9619" ry="18.3848"/>
<text text-anchor="middle" x="1093" y="-15.4" font-family="Times Roman,serif" font-size="14.00">Picture</text>
</g>
<!-- Author -->
<g id="node4" class="node"><title>Author</title>
<ellipse fill="none" stroke="black" cx="372" cy="-187" rx="45.9619" ry="18.3848"/>
<text text-anchor="middle" x="372" y="-183.4" font-family="Times Roman,serif" font-size="14.00">Author</text>
</g>
<!-- Authorable -->
<g id="node5" class="node"><title>Authorable</title>
<ellipse fill="none" stroke="black" cx="201" cy="-19" rx="65.7609" ry="18.3848"/>
<text text-anchor="middle" x="201" y="-15.4" font-family="Times Roman,serif" font-size="14.00">Authorable</text>
</g>
<!-- Author&#45;&gt;Authorable -->
<g id="edge6" class="edge"><title>Author&#45;&gt;Authorable</title>
<path fill="none" stroke="#98af11" d="M363.941,-160.432C353.755,-131.063 333.516,-84.1902 301,-56 289.977,-46.4432 276.263,-39.264 262.56,-33.9041"/>
<ellipse fill="none" stroke="#98af11" cx="365.279" cy="-164.428" rx="4.00001" ry="4.00001"/>
<polygon fill="#98af11" stroke="#98af11" points="262.509,-33.8858 254.642,-26.2467 257.809,-32.1816 253.108,-30.4773 253.108,-30.4773 253.108,-30.4773 257.809,-32.1816 251.574,-34.7078 262.509,-33.8858 262.509,-33.8858"/>
</g>
<!-- Article -->
<g id="node6" class="node"><title>Article</title>
<ellipse fill="none" stroke="black" cx="509" cy="-111" rx="43.1335" ry="18.3848"/>
<text text-anchor="middle" x="509" y="-107.4" font-family="Times Roman,serif" font-size="14.00">Article</text>
</g>
<!-- Author&#45;&gt;Article -->
<g id="edge8" class="edge"><title>Author&#45;&gt;Article</title>
<path fill="none" stroke="#716daf" d="M407.984,-167.038C428.236,-155.803 453.425,-141.83 473.583,-130.647"/>
<polygon fill="#716daf" stroke="#716daf" points="407.811,-167.134 396.884,-168.05 403.439,-169.559 399.067,-171.985 399.067,-171.985 399.067,-171.985 403.439,-169.559 401.25,-175.92 407.811,-167.134 407.811,-167.134"/>
<polygon fill="#716daf" stroke="#716daf" points="473.711,-130.576 484.639,-129.66 478.083,-128.151 482.456,-125.725 482.456,-125.725 482.456,-125.725 478.083,-128.151 480.273,-121.79 473.711,-130.576 473.711,-130.576"/>
</g>
<!-- Article&#45;&gt;Picture -->
<g id="edge16" class="edge"><title>Article&#45;&gt;Picture</title>
<path fill="none" stroke="#d9cf90" d="M560.014,-108.351C633.393,-104.018 772.805,-93.8411 890,-74 956.746,-62.6999 973.047,-57.0731 1038,-38 1041.55,-36.9567 1045.22,-35.8225 1048.89,-34.645"/>
<ellipse fill="none" stroke="#d9cf90" cx="555.823" cy="-108.594" rx="4" ry="4"/>
<polygon fill="#d9cf90" stroke="#d9cf90" points="1049.04,-34.5932 1059.95,-35.7327 1053.79,-33.0263 1058.54,-31.4594 1058.54,-31.4594 1058.54,-31.4594 1053.79,-33.0263 1057.13,-27.186 1049.04,-34.5932 1049.04,-34.5932"/>
</g>
<!-- Article&#45;&gt;Authorable -->
<g id="edge18" class="edge"><title>Article&#45;&gt;Authorable</title>
<path fill="none" stroke="#74215b" d="M467.02,-97.1316C432.075,-85.7135 380.954,-69.3003 336,-56 310.92,-48.5796 283.067,-40.8589 259.206,-34.4019"/>
<ellipse fill="none" stroke="#74215b" cx="470.859" cy="-98.3886" rx="4.00001" ry="4.00001"/>
<polygon fill="#74215b" stroke="#74215b" points="258.899,-34.3193 250.415,-27.3716 254.071,-33.0179 249.244,-31.7165 249.244,-31.7165 249.244,-31.7165 254.071,-33.0179 248.072,-36.0614 258.899,-34.3193 258.899,-34.3193"/>
</g>
<!-- FriendlyId::Slug -->
<g id="node15" class="node"><title>FriendlyId::Slug</title>
<ellipse fill="none" stroke="black" cx="372" cy="-19" rx="86.9741" ry="18.3848"/>
<text text-anchor="middle" x="372" y="-15.4" font-family="Times Roman,serif" font-size="14.00">FriendlyId::Slug</text>
</g>
<!-- Article&#45;&gt;FriendlyId::Slug -->
<g id="edge14" class="edge"><title>Article&#45;&gt;FriendlyId::Slug</title>
<path fill="none" stroke="#a7de04" d="M478.948,-90.8193C457.776,-76.6013 429.355,-57.516 407.134,-42.5934"/>
<ellipse fill="none" stroke="#a7de04" cx="482.439" cy="-93.1635" rx="4.00002" ry="4.00002"/>
<polygon fill="#a7de04" stroke="#a7de04" points="406.945,-42.467 401.152,-33.1562 402.794,-39.6795 398.644,-36.892 398.644,-36.892 398.644,-36.892 402.794,-39.6795 396.135,-40.6278 406.945,-42.467 406.945,-42.467"/>
<text text-anchor="middle" x="469.5" y="-61.4" font-family="Times Roman,serif" font-size="14.00">slugs</text>
</g>
<!-- ActsAsTaggableOn::Tagging -->
<g id="node19" class="node"><title>ActsAsTaggableOn::Tagging</title>
<ellipse fill="none" stroke="black" cx="621" cy="-19" rx="144.25" ry="18.3848"/>
<text text-anchor="middle" x="621" y="-15.4" font-family="Times Roman,serif" font-size="14.00">ActsAsTaggableOn::Tagging</text>
</g>
<!-- Article&#45;&gt;ActsAsTaggableOn::Tagging -->
<g id="edge24" class="edge"><title>Article&#45;&gt;ActsAsTaggableOn::Tagging</title>
<path fill="none" stroke="#e01f95" d="M500.915,-84.5498C499.532,-74.7617 500.104,-64.0906 506,-56 510.833,-49.3677 523.458,-43.3327 538.659,-38.1496"/>
<ellipse fill="none" stroke="#e01f95" cx="501.698" cy="-88.5621" rx="4.00001" ry="4.00001"/>
<polygon fill="#e01f95" stroke="#e01f95" points="538.885,-38.0777 549.78,-39.3213 543.648,-36.5562 548.411,-35.0347 548.411,-35.0347 548.411,-35.0347 543.648,-36.5562 547.041,-30.7481 538.885,-38.0777 538.885,-38.0777"/>
<text text-anchor="middle" x="550.5" y="-61.4" font-family="Times Roman,serif" font-size="14.00">tag_taggings</text>
</g>
<!-- Article&#45;&gt;ActsAsTaggableOn::Tagging -->
<g id="edge20" class="edge"><title>Article&#45;&gt;ActsAsTaggableOn::Tagging</title>
<path fill="none" stroke="#13344e" d="M555.457,-99.8356C570.898,-94.2132 587.155,-85.9586 599,-74 606.175,-66.7562 611.092,-56.8742 614.424,-47.4839"/>
<ellipse fill="none" stroke="#13344e" cx="551.272" cy="-101.256" rx="4.00001" ry="4.00001"/>
<polygon fill="#13344e" stroke="#13344e" points="614.513,-47.1946 621.751,-38.9569 615.981,-42.415 617.45,-37.6355 617.45,-37.6355 617.45,-37.6355 615.981,-42.415 613.148,-36.314 614.513,-47.1946 614.513,-47.1946"/>
<text text-anchor="middle" x="639.5" y="-61.4" font-family="Times Roman,serif" font-size="14.00">taggings</text>
</g>
<!-- ActsAsTaggableOn::Tag -->
<g id="node21" class="node"><title>ActsAsTaggableOn::Tag</title>
<ellipse fill="none" stroke="black" cx="906" cy="-19" rx="123.243" ry="18.3848"/>
<text text-anchor="middle" x="906" y="-15.4" font-family="Times Roman,serif" font-size="14.00">ActsAsTaggableOn::Tag</text>
</g>
<!-- Article&#45;&gt;ActsAsTaggableOn::Tag -->
<g id="edge22" class="edge"><title>Article&#45;&gt;ActsAsTaggableOn::Tag</title>
<path fill="none" stroke="#3b0f0d" d="M557.644,-100.158C590.29,-92.8492 634.249,-82.9446 673,-74 725.633,-61.851 784.877,-47.8622 830.454,-37.0329"/>
<polygon fill="#3b0f0d" stroke="#3b0f0d" points="557.222,-100.252 546.481,-98.0439 552.342,-101.344 547.463,-102.435 547.463,-102.435 547.463,-102.435 552.342,-101.344 548.445,-106.827 557.222,-100.252 557.222,-100.252"/>
<polygon fill="#3b0f0d" stroke="#3b0f0d" points="830.529,-37.0151 841.299,-39.08 835.393,-35.8586 840.258,-34.702 840.258,-34.702 840.258,-34.702 835.393,-35.8586 839.217,-30.3241 830.529,-37.0151 830.529,-37.0151"/>
<text text-anchor="middle" x="783.5" y="-61.4" font-family="Times Roman,serif" font-size="14.00">base_tags</text>
</g>
<!-- Article&#45;&gt;ActsAsTaggableOn::Tag -->
<g id="edge26" class="edge"><title>Article&#45;&gt;ActsAsTaggableOn::Tag</title>
<path fill="none" stroke="#86ea6e" d="M562.189,-107.668C638.645,-102.378 775.524,-90.896 822,-74 841.49,-66.9146 861.006,-54.5365 876.315,-43.3152"/>
<polygon fill="#86ea6e" stroke="#86ea6e" points="561.794,-107.695 551.512,-103.884 556.806,-108.034 551.817,-108.373 551.817,-108.373 551.817,-108.373 556.806,-108.034 552.123,-112.863 561.794,-107.695 561.794,-107.695"/>
<polygon fill="#86ea6e" stroke="#86ea6e" points="876.38,-43.2666 887.072,-40.8325 880.37,-40.2539 884.36,-37.2412 884.36,-37.2412 884.36,-37.2412 880.37,-40.2539 881.649,-33.6498 876.38,-43.2666 876.38,-43.2666"/>
<text text-anchor="middle" x="871" y="-61.4" font-family="Times Roman,serif" font-size="14.00">tags</text>
</g>
<!-- ActiveRecord::Base -->
<g id="node7" class="node"><title>ActiveRecord::Base</title>
<ellipse fill="none" stroke="black" cx="372" cy="-291" rx="104.151" ry="18.3848"/>
<text text-anchor="middle" x="372" y="-287.4" font-family="Times Roman,serif" font-size="14.00">ActiveRecord::Base</text>
</g>
<!-- ActiveRecord::Base&#45;&gt;User -->
<g id="edge2" class="edge"><title>ActiveRecord::Base&#45;&gt;User</title>
<path fill="none" stroke="black" d="M342.885,-272.98C322.879,-260.334 295.9,-242.754 273,-226 262.948,-218.646 252.15,-209.948 243.346,-202.636"/>
</g>
<!-- ActiveRecord::Base&#45;&gt;Picture -->
<g id="edge4" class="edge"><title>ActiveRecord::Base&#45;&gt;Picture</title>
<path fill="none" stroke="black" d="M416.558,-274.19C549.497,-224.038 941.383,-76.1981 1059.15,-31.7695"/>
</g>
<!-- ActiveRecord::Base&#45;&gt;Author -->
<g id="edge10" class="edge"><title>ActiveRecord::Base&#45;&gt;Author</title>
<path fill="none" stroke="black" d="M372,-272.407C372,-253.594 372,-224.664 372,-205.783"/>
</g>
<!-- ActiveRecord::Base&#45;&gt;Authorable -->
<g id="edge12" class="edge"><title>ActiveRecord::Base&#45;&gt;Authorable</title>
<path fill="none" stroke="black" d="M359.881,-272.494C348.668,-255.319 331.581,-229.013 317,-206 278.047,-144.522 232.833,-70.9904 212.246,-37.3873"/>
</g>
<!-- ActiveRecord::Base&#45;&gt;Article -->
<g id="edge28" class="edge"><title>ActiveRecord::Base&#45;&gt;Article</title>
<path fill="none" stroke="black" d="M386.145,-272.415C412.671,-237.563 469.547,-162.836 495.54,-128.685"/>
</g>
</g>
</svg>
