<?xml version="1.0" encoding="UTF-8" standalone="no"?>
<!DOCTYPE svg PUBLIC "-//W3C//DTD SVG 1.1//EN"
 "http://www.w3.org/Graphics/SVG/1.1/DTD/svg11.dtd">
<!-- Generated by graphviz version 2.26.3 (20100126.1600)
 -->
<!-- Title: models_diagram Pages: 1 -->
<svg width="1201pt" height="862pt"
 viewBox="0.00 0.00 1201.00 862.00" xmlns="http://www.w3.org/2000/svg" xmlns:xlink="http://www.w3.org/1999/xlink">
<g id="graph1" class="graph" transform="scale(1 1) rotate(0) translate(4 858)">
<title>models_diagram</title>
<polygon fill="white" stroke="white" points="-4,5 -4,-858 1198,-858 1198,5 -4,5"/>
<!-- _diagram_info -->
<g id="node1" class="node"><title>_diagram_info</title>
<text text-anchor="start" x="8" y="-837.8" font-family="Times Roman,serif" font-size="13.00">Models diagram</text>
<text text-anchor="start" x="8" y="-820.8" font-family="Times Roman,serif" font-size="13.00">Date: Sep 04 2013 &#45; 15:53</text>
<text text-anchor="start" x="8" y="-803.8" font-family="Times Roman,serif" font-size="13.00">Migration version: 20130625114938</text>
<text text-anchor="start" x="8" y="-786.8" font-family="Times Roman,serif" font-size="13.00">Generated by RailRoady 1.1.1</text>
<text text-anchor="start" x="8" y="-769.8" font-family="Times Roman,serif" font-size="13.00">http://railroady.prestonlee.com</text>
</g>
<!-- User -->
<g id="node2" class="node"><title>User</title>
<polyline fill="none" stroke="black" points="65.5,-579 220.5,-579 "/>
<path fill="none" stroke="black" d="M220.5,-579C226.5,-579 232.5,-585 232.5,-591"/>
<polyline fill="none" stroke="black" points="232.5,-591 232.5,-691 "/>
<path fill="none" stroke="black" d="M232.5,-691C232.5,-697 226.5,-703 220.5,-703"/>
<polyline fill="none" stroke="black" points="220.5,-703 65.5,-703 "/>
<path fill="none" stroke="black" d="M65.5,-703C59.5,-703 53.5,-697 53.5,-691"/>
<polyline fill="none" stroke="black" points="53.5,-691 53.5,-591 "/>
<path fill="none" stroke="black" d="M53.5,-591C53.5,-585 59.5,-579 65.5,-579"/>
<text text-anchor="middle" x="143" y="-686.4" font-family="Times Roman,serif" font-size="14.00">User</text>
<polyline fill="none" stroke="black" points="53.5,-677 232.5,-677 "/>
<text text-anchor="start" x="61.5" y="-660.4" font-family="Times Roman,serif" font-size="14.00">id :integer</text>
<text text-anchor="start" x="61.5" y="-642.4" font-family="Times Roman,serif" font-size="14.00">email :string</text>
<text text-anchor="start" x="61.5" y="-624.4" font-family="Times Roman,serif" font-size="14.00">password_digest :string</text>
<text text-anchor="start" x="61.5" y="-606.4" font-family="Times Roman,serif" font-size="14.00">created_at :datetime</text>
<text text-anchor="start" x="61.5" y="-588.4" font-family="Times Roman,serif" font-size="14.00">updated_at :datetime</text>
</g>
<!-- Picture -->
<g id="node3" class="node"><title>Picture</title>
<polyline fill="none" stroke="black" points="1040.5,-1 1181.5,-1 "/>
<path fill="none" stroke="black" d="M1181.5,-1C1187.5,-1 1193.5,-7 1193.5,-13"/>
<polyline fill="none" stroke="black" points="1193.5,-13 1193.5,-131 "/>
<path fill="none" stroke="black" d="M1193.5,-131C1193.5,-137 1187.5,-143 1181.5,-143"/>
<polyline fill="none" stroke="black" points="1181.5,-143 1040.5,-143 "/>
<path fill="none" stroke="black" d="M1040.5,-143C1034.5,-143 1028.5,-137 1028.5,-131"/>
<polyline fill="none" stroke="black" points="1028.5,-131 1028.5,-13 "/>
<path fill="none" stroke="black" d="M1028.5,-13C1028.5,-7 1034.5,-1 1040.5,-1"/>
<text text-anchor="middle" x="1111" y="-126.4" font-family="Times Roman,serif" font-size="14.00">Picture</text>
<polyline fill="none" stroke="black" points="1028.5,-117 1193.5,-117 "/>
<text text-anchor="start" x="1036.5" y="-100.4" font-family="Times Roman,serif" font-size="14.00">id :integer</text>
<text text-anchor="start" x="1036.5" y="-82.4" font-family="Times Roman,serif" font-size="14.00">image :string</text>
<text text-anchor="start" x="1036.5" y="-64.4" font-family="Times Roman,serif" font-size="14.00">name :string</text>
<text text-anchor="start" x="1036.5" y="-46.4" font-family="Times Roman,serif" font-size="14.00">article_id :integer</text>
<text text-anchor="start" x="1036.5" y="-28.4" font-family="Times Roman,serif" font-size="14.00">created_at :datetime</text>
<text text-anchor="start" x="1036.5" y="-10.4" font-family="Times Roman,serif" font-size="14.00">updated_at :datetime</text>
</g>
<!-- Author -->
<g id="node4" class="node"><title>Author</title>
<polyline fill="none" stroke="black" points="301.5,-561 442.5,-561 "/>
<path fill="none" stroke="black" d="M442.5,-561C448.5,-561 454.5,-567 454.5,-573"/>
<polyline fill="none" stroke="black" points="454.5,-573 454.5,-709 "/>
<path fill="none" stroke="black" d="M454.5,-709C454.5,-715 448.5,-721 442.5,-721"/>
<polyline fill="none" stroke="black" points="442.5,-721 301.5,-721 "/>
<path fill="none" stroke="black" d="M301.5,-721C295.5,-721 289.5,-715 289.5,-709"/>
<polyline fill="none" stroke="black" points="289.5,-709 289.5,-573 "/>
<path fill="none" stroke="black" d="M289.5,-573C289.5,-567 295.5,-561 301.5,-561"/>
<text text-anchor="middle" x="372" y="-704.4" font-family="Times Roman,serif" font-size="14.00">Author</text>
<polyline fill="none" stroke="black" points="289.5,-695 454.5,-695 "/>
<text text-anchor="start" x="297.5" y="-678.4" font-family="Times Roman,serif" font-size="14.00">id :integer</text>
<text text-anchor="start" x="297.5" y="-660.4" font-family="Times Roman,serif" font-size="14.00">name :string</text>
<text text-anchor="start" x="297.5" y="-642.4" font-family="Times Roman,serif" font-size="14.00">email :string</text>
<text text-anchor="start" x="297.5" y="-624.4" font-family="Times Roman,serif" font-size="14.00">created_at :datetime</text>
<text text-anchor="start" x="297.5" y="-606.4" font-family="Times Roman,serif" font-size="14.00">updated_at :datetime</text>
<text text-anchor="start" x="297.5" y="-588.4" font-family="Times Roman,serif" font-size="14.00">description :text</text>
<text text-anchor="start" x="297.5" y="-570.4" font-family="Times Roman,serif" font-size="14.00">gplus_profile :string</text>
</g>
<!-- Authorable -->
<g id="node5" class="node"><title>Authorable</title>
<polyline fill="none" stroke="black" points="96.5,-10 237.5,-10 "/>
<path fill="none" stroke="black" d="M237.5,-10C243.5,-10 249.5,-16 249.5,-22"/>
<polyline fill="none" stroke="black" points="249.5,-22 249.5,-122 "/>
<path fill="none" stroke="black" d="M249.5,-122C249.5,-128 243.5,-134 237.5,-134"/>
<polyline fill="none" stroke="black" points="237.5,-134 96.5,-134 "/>
<path fill="none" stroke="black" d="M96.5,-134C90.5,-134 84.5,-128 84.5,-122"/>
<polyline fill="none" stroke="black" points="84.5,-122 84.5,-22 "/>
<path fill="none" stroke="black" d="M84.5,-22C84.5,-16 90.5,-10 96.5,-10"/>
<text text-anchor="middle" x="167" y="-117.4" font-family="Times Roman,serif" font-size="14.00">Authorable</text>
<polyline fill="none" stroke="black" points="84.5,-108 249.5,-108 "/>
<text text-anchor="start" x="92.5" y="-91.4" font-family="Times Roman,serif" font-size="14.00">id :integer</text>
<text text-anchor="start" x="92.5" y="-73.4" font-family="Times Roman,serif" font-size="14.00">author_id :integer</text>
<text text-anchor="start" x="92.5" y="-55.4" font-family="Times Roman,serif" font-size="14.00">article_id :integer</text>
<text text-anchor="start" x="92.5" y="-37.4" font-family="Times Roman,serif" font-size="14.00">created_at :datetime</text>
<text text-anchor="start" x="92.5" y="-19.4" font-family="Times Roman,serif" font-size="14.00">updated_at :datetime</text>
</g>
<!-- Author&#45;&gt;Authorable -->
<g id="edge6" class="edge"><title>Author&#45;&gt;Authorable</title>
<path fill="none" stroke="#599356" d="M371.02,-552.589C366.204,-451.476 346.674,-284.166 274,-162 271.9,-158.47 263.433,-150.517 252.112,-140.726"/>
<ellipse fill="none" stroke="#599356" cx="371.201" cy="-556.66" rx="4" ry="4"/>
<polygon fill="#599356" stroke="#599356" points="251.903,-140.548 247.22,-130.632 248.1,-137.301 244.298,-134.054 244.298,-134.054 244.298,-134.054 248.1,-137.301 241.376,-137.477 251.903,-140.548 251.903,-140.548"/>
</g>
<!-- Article -->
<g id="node6" class="node"><title>Article</title>
<polyline fill="none" stroke="black" points="408.5,-199 573.5,-199 "/>
<path fill="none" stroke="black" d="M573.5,-199C579.5,-199 585.5,-205 585.5,-211"/>
<polyline fill="none" stroke="black" points="585.5,-211 585.5,-509 "/>
<path fill="none" stroke="black" d="M585.5,-509C585.5,-515 579.5,-521 573.5,-521"/>
<polyline fill="none" stroke="black" points="573.5,-521 408.5,-521 "/>
<path fill="none" stroke="black" d="M408.5,-521C402.5,-521 396.5,-515 396.5,-509"/>
<polyline fill="none" stroke="black" points="396.5,-509 396.5,-211 "/>
<path fill="none" stroke="black" d="M396.5,-211C396.5,-205 402.5,-199 408.5,-199"/>
<text text-anchor="middle" x="491" y="-504.4" font-family="Times Roman,serif" font-size="14.00">Article</text>
<polyline fill="none" stroke="black" points="396.5,-495 585.5,-495 "/>
<text text-anchor="start" x="404.5" y="-478.4" font-family="Times Roman,serif" font-size="14.00">id :integer</text>
<text text-anchor="start" x="404.5" y="-460.4" font-family="Times Roman,serif" font-size="14.00">title :string</text>
<text text-anchor="start" x="404.5" y="-442.4" font-family="Times Roman,serif" font-size="14.00">sub_title :string</text>
<text text-anchor="start" x="404.5" y="-424.4" font-family="Times Roman,serif" font-size="14.00">teaser :text</text>
<text text-anchor="start" x="404.5" y="-406.4" font-family="Times Roman,serif" font-size="14.00">content :text</text>
<text text-anchor="start" x="404.5" y="-388.4" font-family="Times Roman,serif" font-size="14.00">published :boolean</text>
<text text-anchor="start" x="404.5" y="-370.4" font-family="Times Roman,serif" font-size="14.00">published_at :datetime</text>
<text text-anchor="start" x="404.5" y="-352.4" font-family="Times Roman,serif" font-size="14.00">hero_image :string</text>
<text text-anchor="start" x="404.5" y="-334.4" font-family="Times Roman,serif" font-size="14.00">created_at :datetime</text>
<text text-anchor="start" x="404.5" y="-316.4" font-family="Times Roman,serif" font-size="14.00">updated_at :datetime</text>
<text text-anchor="start" x="404.5" y="-298.4" font-family="Times Roman,serif" font-size="14.00">slug :string</text>
<text text-anchor="start" x="404.5" y="-280.4" font-family="Times Roman,serif" font-size="14.00">gplus_url :string</text>
<text text-anchor="start" x="404.5" y="-262.4" font-family="Times Roman,serif" font-size="14.00">featured :boolean</text>
<text text-anchor="start" x="404.5" y="-244.4" font-family="Times Roman,serif" font-size="14.00">document :string</text>
<text text-anchor="start" x="404.5" y="-226.4" font-family="Times Roman,serif" font-size="14.00">type :string</text>
<text text-anchor="start" x="404.5" y="-208.4" font-family="Times Roman,serif" font-size="14.00">short_hero_image :string</text>
</g>
<!-- Author&#45;&gt;Article -->
<g id="edge8" class="edge"><title>Author&#45;&gt;Article</title>
<path fill="none" stroke="#69ce71" d="M409.891,-551.525C412.828,-544.592 415.845,-537.467 418.909,-530.232"/>
<polygon fill="#69ce71" stroke="#69ce71" points="409.841,-551.644 401.798,-559.098 407.891,-556.249 405.941,-560.853 405.941,-560.853 405.941,-560.853 407.891,-556.249 410.085,-562.608 409.841,-551.644 409.841,-551.644"/>
<polygon fill="#69ce71" stroke="#69ce71" points="418.913,-530.222 426.956,-522.769 420.863,-525.618 422.813,-521.014 422.813,-521.014 422.813,-521.014 420.863,-525.618 418.669,-519.259 418.913,-530.222 418.913,-530.222"/>
</g>
<!-- Article&#45;&gt;Picture -->
<g id="edge16" class="edge"><title>Article&#45;&gt;Picture</title>
<path fill="none" stroke="#4ddf79" d="M593.276,-327.861C700.701,-291.984 872.982,-228.368 1019.63,-143.974"/>
<ellipse fill="none" stroke="#4ddf79" cx="589.301" cy="-329.183" rx="4.00001" ry="4.00001"/>
<polygon fill="#4ddf79" stroke="#4ddf79" points="1019.71,-143.926 1030.62,-142.798 1024.04,-141.416 1028.36,-138.906 1028.36,-138.906 1028.36,-138.906 1024.04,-141.416 1026.1,-135.014 1019.71,-143.926 1019.71,-143.926"/>
</g>
<!-- Article&#45;&gt;Authorable -->
<g id="edge18" class="edge"><title>Article&#45;&gt;Authorable</title>
<path fill="none" stroke="#d8d6cd" d="M390.84,-232.267C366.174,-206.475 338.345,-181.368 309,-162 288.939,-148.759 279.044,-155.615 258,-144 255.437,-142.585 252.872,-141.099 250.313,-139.555"/>
<ellipse fill="none" stroke="#d8d6cd" cx="393.633" cy="-235.222" rx="4.00002" ry="4.00002"/>
<polygon fill="#d8d6cd" stroke="#d8d6cd" points="250.109,-139.426 244.048,-130.288 245.879,-136.761 241.649,-134.095 241.649,-134.095 241.649,-134.095 245.879,-136.761 239.25,-137.902 250.109,-139.426 250.109,-139.426"/>
</g>
<!-- FriendlyId::Slug -->
<g id="node15" class="node"><title>FriendlyId::Slug</title>
<ellipse fill="none" stroke="black" cx="354" cy="-72" rx="86.9741" ry="18.3848"/>
<text text-anchor="middle" x="354" y="-68.4" font-family="Times Roman,serif" font-size="14.00">FriendlyId::Slug</text>
</g>
<!-- Article&#45;&gt;FriendlyId::Slug -->
<g id="edge14" class="edge"><title>Article&#45;&gt;FriendlyId::Slug</title>
<path fill="none" stroke="#8c9bea" d="M410.768,-191.338C393.801,-155.669 377.824,-122.082 367.169,-99.6829"/>
<ellipse fill="none" stroke="#8c9bea" cx="412.571" cy="-195.128" rx="4.00002" ry="4.00002"/>
<polygon fill="#8c9bea" stroke="#8c9bea" points="367.098,-99.5341 366.866,-88.5706 364.95,-95.0189 362.802,-90.5037 362.802,-90.5037 362.802,-90.5037 364.95,-95.0189 358.738,-92.4368 367.098,-99.5341 367.098,-99.5341"/>
<text text-anchor="middle" x="419.5" y="-167.4" font-family="Times Roman,serif" font-size="14.00">slugs</text>
</g>
<!-- ActsAsTaggableOn::Tagging -->
<g id="node19" class="node"><title>ActsAsTaggableOn::Tagging</title>
<ellipse fill="none" stroke="black" cx="603" cy="-72" rx="144.25" ry="18.3848"/>
<text text-anchor="middle" x="603" y="-68.4" font-family="Times Roman,serif" font-size="14.00">ActsAsTaggableOn::Tagging</text>
</g>
<!-- Article&#45;&gt;ActsAsTaggableOn::Tagging -->
<g id="edge24" class="edge"><title>Article&#45;&gt;ActsAsTaggableOn::Tagging</title>
<path fill="none" stroke="#8f048a" d="M477.655,-190.784C480.159,-180.821 483.544,-171.145 488,-162 502.254,-132.744 531.128,-110.199 556.376,-94.9904"/>
<ellipse fill="none" stroke="#8f048a" cx="476.717" cy="-194.929" rx="4.00001" ry="4.00001"/>
<polygon fill="#8f048a" stroke="#8f048a" points="556.474,-94.9335 567.382,-93.811 560.8,-92.4257 565.125,-89.9179 565.125,-89.9179 565.125,-89.9179 560.8,-92.4257 562.868,-86.0249 556.474,-94.9335 556.474,-94.9335"/>
<text text-anchor="middle" x="532.5" y="-167.4" font-family="Times Roman,serif" font-size="14.00">tag_taggings</text>
</g>
<!-- Article&#45;&gt;ActsAsTaggableOn::Tagging -->
<g id="edge20" class="edge"><title>Article&#45;&gt;ActsAsTaggableOn::Tagging</title>
<path fill="none" stroke="#421624" d="M576.966,-191.232C578.367,-187.473 579.714,-183.726 581,-180 590.012,-153.885 595.857,-122.876 599.24,-100.799"/>
<ellipse fill="none" stroke="#421624" cx="575.444" cy="-195.225" rx="4.00001" ry="4.00001"/>
<polygon fill="#421624" stroke="#421624" points="599.264,-100.635 605.159,-91.3881 599.985,-95.6868 600.706,-90.7391 600.706,-90.7391 600.706,-90.7391 599.985,-95.6868 596.253,-90.09 599.264,-100.635 599.264,-100.635"/>
<text text-anchor="middle" x="615.5" y="-167.4" font-family="Times Roman,serif" font-size="14.00">taggings</text>
</g>
<!-- ActsAsTaggableOn::Tag -->
<g id="node21" class="node"><title>ActsAsTaggableOn::Tag</title>
<ellipse fill="none" stroke="black" cx="888" cy="-72" rx="123.243" ry="18.3848"/>
<text text-anchor="middle" x="888" y="-68.4" font-family="Times Roman,serif" font-size="14.00">ActsAsTaggableOn::Tag</text>
</g>
<!-- Article&#45;&gt;ActsAsTaggableOn::Tag -->
<g id="edge22" class="edge"><title>Article&#45;&gt;ActsAsTaggableOn::Tag</title>
<path fill="none" stroke="#1c29f5" d="M593.691,-285.504C679.862,-222.992 797.722,-137.491 854.599,-96.2301"/>
<polygon fill="#1c29f5" stroke="#1c29f5" points="593.681,-285.511 582.945,-287.74 589.634,-288.447 585.587,-291.383 585.587,-291.383 585.587,-291.383 589.634,-288.447 588.229,-295.025 593.681,-285.511 593.681,-285.511"/>
<polygon fill="#1c29f5" stroke="#1c29f5" points="854.77,-96.1067 865.507,-93.8771 858.817,-93.1706 862.864,-90.2346 862.864,-90.2346 862.864,-90.2346 858.817,-93.1706 860.222,-86.5921 854.77,-96.1067 854.77,-96.1067"/>
<text text-anchor="middle" x="793.5" y="-167.4" font-family="Times Roman,serif" font-size="14.00">base_tags</text>
</g>
<!-- Article&#45;&gt;ActsAsTaggableOn::Tag -->
<g id="edge26" class="edge"><title>Article&#45;&gt;ActsAsTaggableOn::Tag</title>
<path fill="none" stroke="#e7b605" d="M595.478,-324.169C668.915,-294.737 765.538,-246.951 832,-180 854.524,-157.31 869.991,-123.692 878.871,-100.003"/>
<polygon fill="#e7b605" stroke="#e7b605" points="595.031,-324.346 584.077,-323.838 590.381,-326.184 585.731,-328.023 585.731,-328.023 585.731,-328.023 590.381,-326.184 587.386,-332.208 595.031,-324.346 595.031,-324.346"/>
<polygon fill="#e7b605" stroke="#e7b605" points="878.897,-99.9312 886.511,-92.0393 880.586,-95.2251 882.275,-90.5191 882.275,-90.5191 882.275,-90.5191 880.586,-95.2251 878.04,-88.9989 878.897,-99.9312 878.897,-99.9312"/>
<text text-anchor="middle" x="861" y="-167.4" font-family="Times Roman,serif" font-size="14.00">tags</text>
</g>
<!-- ActiveRecord::Base -->
<g id="node7" class="node"><title>ActiveRecord::Base</title>
<ellipse fill="none" stroke="black" cx="372" cy="-807" rx="104.151" ry="18.3848"/>
<text text-anchor="middle" x="372" y="-803.4" font-family="Times Roman,serif" font-size="14.00">ActiveRecord::Base</text>
</g>
<!-- ActiveRecord::Base&#45;&gt;User -->
<g id="edge2" class="edge"><title>ActiveRecord::Base&#45;&gt;User</title>
<path fill="none" stroke="black" d="M331.639,-789.949C305.999,-778.227 272.73,-761.323 246,-742 230.27,-730.629 214.624,-716.886 200.454,-703.25"/>
</g>
<!-- ActiveRecord::Base&#45;&gt;Picture -->
<g id="edge4" class="edge"><title>ActiveRecord::Base&#45;&gt;Picture</title>
<path fill="none" stroke="black" d="M401.577,-789.231C427.527,-773.068 465.737,-747.854 496,-722 719.243,-531.282 948.065,-267.883 1052.55,-143.073"/>
</g>
<!-- ActiveRecord::Base&#45;&gt;Author -->
<g id="edge10" class="edge"><title>ActiveRecord::Base&#45;&gt;Author</title>
<path fill="none" stroke="black" d="M372,-788.28C372,-771.661 372,-746.183 372,-721.064"/>
</g>
<!-- ActiveRecord::Base&#45;&gt;Authorable -->
<g id="edge12" class="edge"><title>ActiveRecord::Base&#45;&gt;Authorable</title>
<path fill="none" stroke="black" d="M344.79,-789.09C323.897,-773.821 296.139,-749.941 281,-722 253.096,-670.5 197.027,-286.497 175.597,-134.08"/>
</g>
<!-- ActiveRecord::Base&#45;&gt;Article -->
<g id="edge28" class="edge"><title>ActiveRecord::Base&#45;&gt;Article</title>
<path fill="none" stroke="black" d="M400.387,-789.161C421.644,-774.091 449.318,-750.444 463,-722 492.578,-660.508 502.148,-586.294 503.342,-521.111"/>
</g>
</g>
</svg>
